<svg xmlns="http://www.w3.org/2000/svg" viewBox="0 0 26.78 10.03"><defs><style>.cls-1{fill:none;stroke:#000;stroke-miterlimit:10;}</style></defs><g id="Layer_2" data-name="Layer 2"><g id="Layer_1-2" data-name="Layer 1"><path class="cls-1" d="M3.19,6.59a3.89,3.89,0,0,0-.07.66A3.37,3.37,0,0,0,3.48,9,2.47,2.47,0,0,1,2,9.53,1.32,1.32,0,0,1,.86,9.08,2.28,2.28,0,0,1,.53,7.73a45.25,45.25,0,0,1,.75-5.07L.65,1.38A4.59,4.59,0,0,1,3.12.5L6,.53a2.21,2.21,0,0,1,1.79.78,2.92,2.92,0,0,1,.65,1.9,3.42,3.42,0,0,1-1,2.4,3.23,3.23,0,0,1-1.26.83,4.36,4.36,0,0,1-1.62.31A4.91,4.91,0,0,1,3.19,6.59Zm.23-1.37a2,2,0,0,0,1.71-.51,1.71,1.71,0,0,0,.6-1.33,1.39,1.39,0,0,0-.31-.93,1.1,1.1,0,0,0-.9-.39,1.74,1.74,0,0,0-.55.1C3.81,3.25,3.63,4.27,3.42,5.22Z"/><path class="cls-1" d="M10.4,9.52a1.32,1.32,0,0,1-1.12-.45A2.24,2.24,0,0,1,9,7.73,44.59,44.59,0,0,1,9.7,2.66L9.07,1.38A4.59,4.59,0,0,1,11.54.5c.61,0,.92.38.92,1.13,0,.22-.17,1.21-.5,3l.56-.47c1.17-1,1.75-1.81,1.75-2.49a1.7,1.7,0,0,0-.09-.57A3.25,3.25,0,0,1,15.86.51,1,1,0,0,1,17,1.71c0,.9-.79,1.81-2.38,2.73Q15.76,8,17.06,8.85a2.17,2.17,0,0,1-.79.46,2.52,2.52,0,0,1-.93.2A2,2,0,0,1,14,9.09a3.62,3.62,0,0,1-.88-1.55l-.7-1.95L11.71,6a9,9,0,0,0-.17,1.26A3.32,3.32,0,0,0,11.9,9,2.47,2.47,0,0,1,10.4,9.52Z"/><path class="cls-1" d="M23.93,9.51a1.84,1.84,0,0,1-1.27-.42,6.68,6.68,0,0,1-1.14-1.68L21,6.48a2.82,2.82,0,0,0-.82,1.75,1.9,1.9,0,0,0,.11.66,3.2,3.2,0,0,1-1.78.62,1.27,1.27,0,0,1-.94-.32,1.16,1.16,0,0,1-.3-.81q0-1.43,2.86-3.52l-1.06-2a2.8,2.8,0,0,0-1.47-1.48A2.63,2.63,0,0,1,19.55.51a1.86,1.86,0,0,1,1.28.42A6.68,6.68,0,0,1,22,2.61l.49.94A2.81,2.81,0,0,0,23.3,1.8a1.76,1.76,0,0,0-.12-.66A3.17,3.17,0,0,1,25,.51a1.24,1.24,0,0,1,.94.33,1.12,1.12,0,0,1,.3.8q0,1.52-2.85,3.6l1,1.94a2.77,2.77,0,0,0,1.47,1.48A2.59,2.59,0,0,1,23.93,9.51Z"/></g></g></svg>