<svg xmlns="http://www.w3.org/2000/svg" viewBox="0 0 28.04 4.72"><path d="M2.32.36a1.18,1.18,0,0,1,.53.45A1.23,1.23,0,0,1,3,1.48a1.23,1.23,0,0,1-.19.67,1.16,1.16,0,0,1-.53.44,2,2,0,0,1-.8.16H.81v1H0V.21H1.52A2,2,0,0,1,2.32.36ZM2,1.93a.55.55,0,0,0,.19-.45A.53.53,0,0,0,2,1,.8.8,0,0,0,1.47.87H.81V2.08h.66A.86.86,0,0,0,2,1.93Z"/><path d="M4.07,3.57a1.32,1.32,0,0,1-.53-.49,1.34,1.34,0,0,1-.19-.72,1.31,1.31,0,0,1,.72-1.2A1.58,1.58,0,0,1,4.83,1a1.58,1.58,0,0,1,.76.18,1.29,1.29,0,0,1,.52.49,1.38,1.38,0,0,1,0,1.43,1.29,1.29,0,0,1-.52.49,1.58,1.58,0,0,1-.76.18A1.58,1.58,0,0,1,4.07,3.57Zm1.25-.66a.77.77,0,0,0,.2-.55.77.77,0,0,0-.2-.54.66.66,0,0,0-.49-.2.69.69,0,0,0-.5.2.81.81,0,0,0-.19.54.81.81,0,0,0,.19.55.69.69,0,0,0,.5.2A.66.66,0,0,0,5.32,2.91Z"/><path d="M6.82,0H7.6V3.71H6.82Z"/><path d="M9.48,2.65,9.11,3v.69H8.33V0h.78V2.1L10.25,1h.93L10.06,2.16l1.22,1.55h-.95Z"/><path d="M12.73,1.08a1.35,1.35,0,0,1,.55-.1V1.7h-.17a.7.7,0,0,0-.53.19.73.73,0,0,0-.19.56V3.71h-.78V1h.75v.36A.85.85,0,0,1,12.73,1.08Z"/><path d="M16.51,1,15.29,3.88a1.39,1.39,0,0,1-.45.65,1.09,1.09,0,0,1-.66.19,1.52,1.52,0,0,1-.42-.06,1.29,1.29,0,0,1-.33-.18l.28-.56a.55.55,0,0,0,.21.12.5.5,0,0,0,.23,0A.4.4,0,0,0,14.41,4a.54.54,0,0,0,.18-.26v0L13.44,1h.8L15,2.84,15.76,1Z"/><path d="M19.1,1.15a1.19,1.19,0,0,1,.48.49,1.43,1.43,0,0,1,.18.72,1.44,1.44,0,0,1-.18.73,1.19,1.19,0,0,1-.48.49,1.4,1.4,0,0,1-.68.17,1,1,0,0,1-.81-.33V4.68h-.78V1h.75v.31A1,1,0,0,1,18.42,1,1.4,1.4,0,0,1,19.1,1.15Zm-.32,1.76A.77.77,0,0,0,19,2.36a.76.76,0,0,0-.19-.54.68.68,0,0,0-.49-.2.67.67,0,0,0-.5.2.76.76,0,0,0-.19.54.77.77,0,0,0,.19.55.67.67,0,0,0,.5.2A.68.68,0,0,0,18.78,2.91Z"/><path d="M22,3.58a.73.73,0,0,1-.28.13,1.34,1.34,0,0,1-.35,0,1,1,0,0,1-.74-.25.9.9,0,0,1-.26-.71V1.68H20v-.6h.42V.42h.78v.66h.67v.6h-.67V2.77a.36.36,0,0,0,.08.27.33.33,0,0,0,.25.09A.46.46,0,0,0,21.8,3Z"/><path d="M25,2.58H23a.63.63,0,0,0,.25.4.85.85,0,0,0,.51.14,1.08,1.08,0,0,0,.38-.06.72.72,0,0,0,.3-.2l.41.46a1.37,1.37,0,0,1-1.1.43,1.73,1.73,0,0,1-.81-.18,1.35,1.35,0,0,1-.54-.49,1.34,1.34,0,0,1-.19-.72,1.33,1.33,0,0,1,.19-.71,1.27,1.27,0,0,1,.51-.49A1.49,1.49,0,0,1,23.6,1a1.53,1.53,0,0,1,.72.17,1.24,1.24,0,0,1,.5.49,1.45,1.45,0,0,1,.18.74S25,2.46,25,2.58Zm-1.82-.86a.63.63,0,0,0-.23.41h1.33a.66.66,0,0,0-.22-.41.67.67,0,0,0-.44-.15A.65.65,0,0,0,23.17,1.72Z"/><path d="M27.16,3.71l-.59-.83L26,3.71h-.85l1-1.36L25.14,1H26l.57.79L27.17,1H28L27,2.33l1,1.38Z"/></svg>