<svg xmlns="http://www.w3.org/2000/svg" viewBox="0 0 12 12"><path d="M6,6.85l-5,5A.58.58,0,0,1,.6,12a.61.61,0,0,1-.43-.17A.61.61,0,0,1,0,11.4.58.58,0,0,1,.18,11l5-5-5-5A.58.58,0,0,1,0,.6.69.69,0,0,1,.05.36.59.59,0,0,1,.18.17.52.52,0,0,1,.37.05.59.59,0,0,1,.6,0,.58.58,0,0,1,1,.18l5,5,5-5A.58.58,0,0,1,11.4,0a.59.59,0,0,1,.23.05.43.43,0,0,1,.19.13A.43.43,0,0,1,12,.37.59.59,0,0,1,12,.6a.58.58,0,0,1-.18.43l-5,5,5,5a.58.58,0,0,1,.18.43.59.59,0,0,1-.05.23.52.52,0,0,1-.12.19.59.59,0,0,1-.19.13.69.69,0,0,1-.24.05.58.58,0,0,1-.43-.18Z" fill="#231f20"/></svg>