<svg xmlns="http://www.w3.org/2000/svg" viewBox="0 0 1595 1705" fill="#010101"><path d="M745.12 39.82c9.9-1.41 19.94-.52 29.89-1.39 69.5-2.53 139.31 4.94 206.78 21.84 15.18 3.49 29.93 8.58 44.89 12.92 16.21 5.89 32.65 11.22 48.38 18.35 12.7 5.19 25.14 10.96 37.37 17.17 12.07 5.58 23.54 12.31 35.15 18.78 32.96 18.66 64.04 40.55 93.17 64.74 30.47 25.39 59 53.14 84.86 83.21 52.72 61.43 95.8 131.07 127.43 205.58 18.81 44.67 33.86 91.05 43.21 138.65 11.88 3.64 23.5 8.13 34.87 13.17 7.07 3.39 14.57 6.32 20.72 11.29 5.33 6.22 6.23 14.97 6.18 22.86.46 8.08-2.2 15.85-4.51 23.47-3.98 12.83-9.06 25.35-11.96 38.5-.89 3.63-.38 7.41-.93 11.1-4.05 49.41-9.99 98.65-14.88 147.99-1.18 6.88.4 13.8.86 20.68 8.69 3.08 17.44 6.33 25.14 11.49 2.95 2.05 6.27 4.79 6.28 8.73 1.98 21.26 3.33 42.61 2.98 63.99.36 23.46-1.09 46.92-4.15 70.17-3.44 23.28-8.91 46.25-16.06 68.67-6.32 19.33-13.46 38.55-23.66 56.22-3.92 6.57-8.26 13.03-13.88 18.28-7.38 6.83-17.59 9.25-27.25 10.73-14.19 2.12-28.54 2.14-42.85 1.99-1.3 4.67-2.25 9.46-4.1 13.96-2.53 5.81-7.32 10.16-11.89 14.38-10.07 36.47-27.49 70.71-49.14 101.64-1.16 2.04-4.08 4.04-2.56 6.65 5.98 15.93 3.06 33.81-3.76 48.99-3.66 8.2-8.42 15.88-13.77 23.08 1.52 11.06 1.14 22.25 1.02 33.39-.79 7.79-1.81 15.9-5.98 22.72-8.72 15.08-19.95 28.56-31.92 41.14-41.21 43.48-94.8 73.6-151.01 93.17l-25.99 8.03c-25.09 6.63-50.53 11.85-75.99 16.8-44.13 8.55-88.48 16.15-133.15 21.14-39.8 4.68-79.82 6.92-119.88 7.92-28.37-.25-56.76.61-85.11-.78-38.39-.86-76.8-2.62-114.95-7.07-46.09-5.45-91.88-13.42-137.14-23.71-39.45-8.98-78.56-19.58-116.98-32.3-20.08-6.76-40.09-13.78-59.61-22.06-19.88-8.4-39.59-17.6-57.39-29.91-16.05-11.36-31.44-23.72-45.46-37.51-7.38-7.68-14.53-15.65-20.27-24.63-4.66-7.3-8.74-15.23-10-23.88-.99-15.02-1.22-30.09-.33-45.11-6.17-7.55-11.93-15.67-15.2-24.94-1.09-3.22-2.15-6.57-1.9-10 .71-17.03 1.57-34.07 3.41-51.02-15.66-13.45-29.66-28.73-42.25-45.05-24.74-32.01-44.81-69.02-50.57-109.51-.45-5.18-1.18-10.34-1.2-15.54.12-3.08-1.42-5.81-2.34-8.64-8.51-23.46-13.62-48.38-12.75-73.4.74-27.81 9.79-54.79 22.39-79.39 7.24-14.42 16.01-28 24.82-41.5-4.72-6.77-6.74-14.92-8.53-22.85-3.2-15.54-5.56-31.33-5.68-47.21.97-33.06 8.82-65.52 19.11-96.83 3.24-9.54 6.56-19.09 10.82-28.23.61-1.26 1.09-2.59 1.1-3.99 1.3-13.27.47-26.61 0-39.9.05-5.35-.14-10.69-.65-16.02-1.21-24.09-2.73-48.19-5.46-72.17-.04-2.32-1.35-4.29-2.37-6.28-6.94-12.61-12.43-26.3-13.98-40.7-.76-7.28 3.16-14.2 8.7-18.66 9.81-7.76 22.35-11.2 34.59-12.65 2.26-11.62 3.83-23.39 6.92-34.85 11.24-45.12 30.67-87.85 54.3-127.77 28.16-47.56 62.2-91.56 100.61-131.25 71.54-74.77 158.14-135.13 253.28-175.89 66.67-28.2 137.86-46.31 210.16-50.99m2 24.94c-31.36 1.86-62.53 6.44-93.26 12.92-71.71 15.79-140.78 43.14-204.25 80.02-77.25 44.99-146.96 103.02-204.75 171.25-35.49 42.42-66.4 88.96-89.38 139.35-1.19 2.5-2.04 5.2-3.66 7.47-1.57 5.24-3.93 10.19-5.82 15.32-11.35 29.87-19.86 61.12-22.06 93.1-.47 7.07-1.57 14.21-.37 21.28.64-5.49.18-11.03.47-16.53 2.82-33.79 10.84-67.14 23.1-98.72.78-2.43 1.59-4.9 3.05-7.01 1.51-4.83 3.28-9.69 5.94-14.01.69-1.69 1.19-3.44 1.98-5.08 8.91-19.01 19.34-37.33 31.34-54.57 30.51-44.07 71.27-80.89 118.01-107.12 47.7-26.78 100.27-43.87 153.62-55.22 33.89-7.15 68.29-11.7 102.78-14.62 9.28-1.1 18.7-1.11 27.91-2.78 11.03-6.13 19.93-16.31 32.46-19.6 10.91-1.2 21.88-.01 32.82-.2 24.66 1.34 49.34 2.47 73.85 5.52 5.22.85 11.39 1.07 14.94 5.6 4.26 4.82 2.99 11.6 3.18 17.48 110.01 15.3 218.1 47.08 317.47 97.01 68.12 34.33 131.81 78.05 186.3 131.57 20.82 20.3 39.93 42.27 58.3 64.8 24.96 30.58 48.17 62.63 68.63 96.41 9.27 15.06 17.66 30.64 26.55 45.92 4.08-1.22 6.5-4.98 9.76-7.47 16.61-15.27 33.19-30.69 47.8-47.92 6.35-7.55 12.54-15.42 16.64-24.45.75-2.02 2.19-4.19 1.1-6.36-10.1-32.71-22.55-64.68-36.75-95.82-32.85-71.2-75.57-137.98-127.44-196.83-65.51-74.68-146.73-136.05-237.93-175.83-14.27-5.88-28.43-12.04-43.11-16.86-16.44-6.3-33.44-10.88-50.29-15.9l-27.98-6.72c-10.61-2.69-21.46-4.23-32.19-6.28-15.13-2.97-30.47-4.48-45.75-6.35-25.58-2.93-51.33-3.68-77.06-4.47-11.06-.33-22.1.35-33.14.79-7.6.4-15.26-.31-22.81.91M627.18 225.13c-7.02 2.54-12.78 7.53-18.75 11.85 23.21.01 46.43.41 69.59 2 18.74.57 37.36 2.91 56.02 4.71-.49-4.06-.32-8.14-.23-12.21-10.21-1.56-20.5-2.23-30.75-3.29-25.27-1.4-50.55-3.9-75.88-3.06m-76.21 30.88c-38.39 2.69-76.64 8.46-113.93 18.1-48.18 12.55-94.6 32.72-135.56 61.17-28.38 20.14-54.87 43.25-77.15 70.06-29.11 35.02-50.41 76.61-61 120.95-7.77 32.9-10.14 67.2-5.96 100.78 1.68-10.05 4.47-19.87 6.85-29.76 1.19-4.37.61-8.92.82-13.38 4.36-64.4 27.46-127.78 67.11-178.88 30.58-39.27 70.67-70.7 115.11-92.9 39.37-19.94 82.1-32.47 125.33-40.7 18.37-3.43 36.86-6.36 55.5-7.72 20.53-2.49 41.23-2.61 61.86-3.69 15.99.3 32.02-.29 47.99.81 21.42.48 42.8 1.83 64.14 3.68 65.25 5.58 130.17 16.37 193.33 33.88 75.05 20.4 147.47 50.88 214.03 91.17 64.96 39.4 123.98 89.15 171.82 148.3 11.17 13.89 22.26 27.93 31.57 43.17 10.51 16.52 20.17 33.58 29.35 50.88 18.47 35.16 34.99 71.46 47.39 109.23 7.64 23.91 13.83 48.61 14.24 73.83.09 3.89-.82 8.67 2.79 11.36 5.87 4.58 14.02 5.24 21.2 4.48-3.93-2.19-9.84-2.11-11.65-6.99-3.39-8.84-4.1-18.43-6.01-27.64l-7.13-42.27c-4.1-23.58-13.61-45.75-23.74-67.28-7.78-15.94-16.14-31.58-25.06-46.89-20.59-35.36-43.33-69.45-67.95-102.13-21.39-28.28-44-55.73-69.23-80.69-16.09-15.11-33.53-28.75-51.75-41.2-34.21-23.3-70.38-43.64-107.76-61.38-55.97-26.74-114.46-48.12-174.24-64.61-17.93-5.31-36.25-9.13-54.41-13.54-13.84-2.93-27.78-5.39-41.67-8.1-18.31-2.89-36.65-5.71-55.06-7.82l-34.03-3.24-53.09-2.82c-31.36-.54-62.77-.75-94.05 1.78m0 24.01c-20.95 1.86-41.97 3.18-62.75 6.63-43.73 6.71-86.99 17.98-127.4 36.18-42.76 19.2-81.85 46.95-113.06 82 1.76 4.96 3.19 10.68 7.62 14 4.59 1.81 9.51-.57 13.6-2.67 42.69-27.3 89.34-48.08 137.42-63.9 69.03-22.61 141.94-33.87 214.59-31.27 5.51-.13 11 .28 16.47.85 23.68 1.14 47.11 4.88 70.47 8.76 14.78 2.19 29.28 5.89 43.93 8.82 65.09 15.02 128.5 36.8 190 62.78 45.73 19.46 90.54 41.08 134.16 64.9l48.92 27.02c8.53 4.1 17.52 7.69 26.99 8.83 8.73.84 17.61-2.1 24.33-7.68 8.28-6.61 14.35-15.49 19.85-24.43-83.75-70.51-184.16-119.52-289.05-149.63-63.05-18.14-127.86-29.91-193.12-36.32-30.21-2.99-60.53-4.61-90.87-5.87l-45.07-.01c-9.01.24-18 1.17-27.03 1.01m-311.18 86.75c-55.49 52.91-92.14 124.46-105.45 199.76-2.55 15.05-4.21 30.35-3.16 45.62.35 1.85.56 4.23 2.54 5.1 5.58 3.47 12.4 3.98 18.81 3.73-2.31-18.25-3.47-36.73-1.87-55.09 2.62-43.87 15.35-87.07 36.65-125.49 18.27-32.65 42.41-61.92 70.36-86.72 9.47-8.94 19.9-16.78 29.99-24.99-17.04 11.24-33.09 24-47.87 38.08m280.12-25.62c-45.56 7.13-90.35 19.09-133.52 35.3-38.03 14.53-75.26 31.56-109.95 52.97-7.4 3.98-16.14 6.35-24.44 3.96-5.07 4.94-8.9 10.92-13.2 16.49-14.06 20.45-25.49 42.56-35.94 65.03-15.44 34.15-28.14 69.56-38.01 105.71 1.39-2.3 2.47-4.77 3.65-7.17 17.19-35.12 38.47-68.32 64.01-97.97 26.29-30.97 57.81-57.33 92.35-78.66 59.59-36.12 127.97-56.7 197.19-62.92 12.23-1.85 24.61-1.71 36.91-2.79a928.86 928.86 0 0 1 58.06-.08c7.34.25 14.66 1.16 22.02 1.04 108.08 7.38 216.04 26.93 317.61 65.38 25.63 9.44 50.51 20.8 75.05 32.77 20.38 10.64 40.57 21.68 59.89 34.15 15.84 10.35 31.45 21.07 46.31 32.79 30.46 23.94 58.34 51.18 82.78 81.25 24.26 30.4 44.9 63.82 60.41 99.52 14.2 32.08 23.95 66.02 30.26 100.5 3.42 18 5.07 36.25 6.6 54.48.12 15.38 1.8 30.75.62 46.12-.81 9.27-.04 18.63-1.42 27.86-.64 8.76-1.63 17.5-2.36 26.26-3.26 22.97-6.43 46.02-12.32 68.51-5.4 21.38-12.53 42.34-21.28 62.59-15.8 37.04-37.8 71.37-64.42 101.57-26.67 30.3-58.2 56.13-92.24 77.74-36.55 22.95-76.01 41.08-116.75 55.24-89.23 30.74-183.84 42.96-277.85 45.22-24.96-.19-49.95.57-74.88-.98-8.04.29-16-1.02-24.02-1.04-71.27-4.34-142.28-14.21-211.92-30.21-23.71-5.6-47.36-11.57-70.49-19.25-38.07-12.99-73.97-32.47-105.25-57.81-31.53-25.53-58.59-56.45-80.29-90.71-24.35-38.45-42.68-80.63-54.93-124.43.24 43.34 2.89 86.87 11.94 129.35 4.5 20.38 10.49 40.56 19.76 59.32 1.73 3.69 5.12 6.16 7.88 9.04 14.51 14.03 30.47 26.49 47.1 37.9 36.25 24.55 75.7 44.1 116.44 59.99 41.16 15.89 83.52 28.73 126.6 38.27 7.99 1.62 15.91 3.76 24.01 4.71 3.1-2.08 6.08-4.76 9.99-5.04l20.07-.66c19.48.41 39.16.67 58.24 5.07 6.62 1.74 14.48 3.96 17.4 10.9 11.1.74 22.23.79 33.34 1.51 16.71-.08 33.42.86 50.14.52 58.13-.2 116.2-3.87 173.83-11.45 89.34-11.77 177.73-32.95 261.46-66.55 77.35-31.04 150.64-73.01 214.56-126.67 28.69-23.33 52.85-51.96 72.11-83.48l-3.12.32c-4.42-36-7.22-72.32-5.9-108.64 2.05-39.58 9.13-78.88 20.01-116.99 6.39-20.61 13.35-41.41 24.8-59.84 4.98.44 9.98.5 14.99.67l9.19 37.99c-1.71 1.5-3.35 3.07-4.98 4.65 13.36 3.88 21.27 17.08 24.74 29.77 2.57-17.33 4.02-35.52-1.51-52.45-3.52-10.16-8.95-20.17-17.78-26.66l-4.69 5.84c-7.78.71-16.14 1.36-23.33-2.25-4.9-2.35-8.94-7.12-9.43-12.64.04-15.57-2.08-31.1-5.79-46.21-5.45-22.77-13.53-44.82-22.56-66.4-15.32-36.31-33.61-71.35-54.06-105.04-10.29-16.75-21.12-33.23-33.84-48.25-23.71-29.71-50.49-56.88-79.23-81.71-3.36 9.77-8.24 19.15-15.27 26.79-6.45 6.82-15.03 11.79-24.4 13.08-6.87 1.39-13.88.07-20.57-1.52-8.67-2.43-17.12-5.68-25.02-9.99l-62.78-33.46c-95.9-49.39-196.3-91.42-301.52-116.24-17.76-3.67-35.4-8.01-53.4-10.45-34.46-6.25-69.54-8.91-104.55-7.83-24.49.28-48.91 2.59-73.11 6.3m45.16 49.99c-11.69 1.09-23.47 1-35.15 2.32-11.63 1.48-23.36 2.24-34.9 4.35-11.84 2.06-23.76 3.71-35.39 6.78-58.3 12.98-114.49 37.5-161.55 74.57-33.83 26.34-62.88 58.64-86.53 94.37-24.38 36.69-43.03 76.96-57.42 118.52-29.78 86.36-40.83 178.03-42.65 268.97-.59 16.34-.35 32.7-.08 49.05.75 7.31 2.39 14.49 3.87 21.68 10.57 47.35 28.48 93.09 53.29 134.8 22.32 37.3 50.66 71.28 84.93 98.17 30 23.8 64.32 42.03 100.66 54.04 20.72 6.74 41.88 12.04 63.08 17 72.5 16.63 146.5 26.4 220.73 30.22 11.01.06 21.98 1.37 33 1.01 87.82 2.04 176.17-4.82 261.74-25.3 41-9.83 81.31-22.88 119.68-40.41 35.85-16.29 70.13-36.33 100.87-61.02 30.77-24.46 57.87-53.6 79.56-86.42 25.04-37.71 42.46-80.25 52.68-124.28 4.37-18.3 6.81-36.96 9.5-55.55 2.62-23.58 4.44-47.29 4.04-71.05-.05-45.54-6.81-91.1-20.49-134.57-3.06-11.07-7.66-21.61-11.59-32.38-12.15-29.25-27.39-57.25-45.77-83.07-22.72-32.43-50.19-61.37-80.24-87.08-29.9-25.24-62.52-47.21-96.84-65.97-47.71-26.36-98.6-46.6-150.67-62.52-69.16-21.05-140.59-34.18-212.46-41.37-19.59-1.89-39.2-3.68-58.88-4.19-5.71-.4-11.41-.95-17.13-.81-13.29.09-26.6-.19-39.89.14M171.94 566.02c-.4 2.47-1.09 4.93-.84 7.47 7.58-24.06 16.3-47.79 26.67-70.79 9.22-20.5 20.03-40.37 33.48-58.41 4.47-5.32 8.51-11.07 13.74-15.68-3.22-4.07-5.25-9.11-5.18-14.34-35.38 43.52-58.59 96.52-67.87 151.75m1116.12-44.4c1.9 2.52 2.87 5.76 5.41 7.77 11.89 15.96 23.11 32.41 34.03 49.05 21.93 33.93 42.42 68.89 59.52 105.53 9.49 21.03 18.34 42.62 22.42 65.44l10.04 63.49c.73 3.41 1.12 7.1 3.32 9.96 7.21.68 14.66 2.1 20.4 6.86 15.11 11.79 20.95 31.76 21.17 50.25.62 34.05-9.13 67.07-17.54 99.73-2.83 11.59-6.79 23.15-6.51 35.24-.48 17.34-.28 34.69-.32 52.04-.19 9.36.86 18.69 1.12 28.05.81 6.2 1.05 12.58 3.24 18.51.95 2.88 3.7 4.47 6.27 5.73 5.44 2.58 11.47 3.45 17.38 4.34-3.32-8.44-3.77-17.58-4.73-26.49-.82-16.03-1.54-32.07-1.27-48.12 1.52-47.17 10.52-93.67 20.28-139.73 4.91-20.95 6.24-42.49 8.42-63.83 1.81-25.53 3.68-51.1 3.26-76.73-6.6 6.28-11.86 13.77-17.63 20.79 6.33 9.93 11.58 21.5 9.61 33.57-1.9 11.27-1.4 22.77.52 34l-2.89.8c-1.36-5.52-1.78-11.2-2.21-16.85-.48-9.09 2.09-18.02 1.58-27.09-1.24-8.94-5.67-17.04-10.64-24.43 6.89-8.43 12.85-17.99 21.69-24.54-.57-7.52-.51-15.15-1.85-22.57l-27.9-10.42c-9.69 5.99-22.95 5.53-32.18-1.15-4.37-3.08-6.77-7.99-9.78-12.24-11.4-17.2-21.37-35.28-31.72-53.12-11.12-19.35-22.71-38.45-35.28-56.91-20.45-30.44-43.54-59-67.23-86.93M95.75 580.76c-3.75 2.49-7.74 6.32-6.78 11.29 1.37 11.91 5.75 23.29 11.22 33.88 1.62 3.24 3.74 6.42 3.9 10.16 2.99 26.53 3.55 53.24 4.88 79.89-.07 12.33.46 24.66.05 36.99-.07 8.1.23 16.8-3.99 24.05-7.68 16.73-13.64 34.22-18.85 51.87-6 20.58-10.47 41.69-12.18 63.08-.76 14.21.28 28.41 2.37 42.46 1.65 9.79 2.99 19.96 7.9 28.77 4.42-6.66 9.03-13.19 13.73-19.66.76-38.57 4.09-77.05 8.89-115.31-7.68 25.71-15.13 51.81-16.83 78.72-.49 7.81.74 15.59 2.42 23.2-3.19-5.89-4.94-12.48-5.61-19.11-2.11-14.95-.01-30.06 2.34-44.84 4.43-24.13 11.27-47.95 21.95-70.08 2.21-4.84 2.27-10.28 3.56-15.37 2.06-11.65 4.87-23.34 7.09-34.83-1.06-.3-2.13-.47-3.22-.51-.9-9.78-.91-19.63-1.79-29.42-3.64-7.79-6.38-16.28-5.83-24.98-.5-4.65 1.54-9.09 4.63-12.44-3.82-5.87-5.1-12.92-6.37-19.68-1.08-14.52-3.38-28.9-5.15-43.35 5.72 13.36 9.11 27.64 11.6 41.93 1.12 5.7 3.25 11.12 5.34 16.52 8.13-5.82 17.45-9.66 26.83-12.98 2.59-6.91 6.09-13.59 7-21 .82-4.41-.61-8.73-1.17-13.05-5.83.41-11.85.64-17.47-1.22-12.01-3.52-19.49-16.46-18.72-28.64.68-8.84-.07-17.79 1.62-26.54-8.1 2.55-16.25 5.46-23.36 10.2m1372.5 43.49c-12.58 15.63-27.36 29.36-42.89 42.01-5.56 4.17-10.66 9.21-17.11 11.96 8.34 14.7 16.75 29.38 26.24 43.38 3.14 4.08 8.44 5.85 13.4 6.39 7.5.7 14.69-2.59 20.53-7.05-4.64-.04-9.85 1.58-14-1.22-5.17-3.55-7.16-9.93-8.59-15.72-3.04-14.16-3.14-28.75-2.65-43.16 8.16-7.71 16.49-15.25 24.26-23.36 4.88-5.48 10.55-10.44 13.91-17.07 1.79-3.08 5.78-2.37 8.78-2.43l-5.59-20.75c-3.69 9.94-9.72 18.78-16.29 27.02m19.46 2.47c-4.82 7.33-11.27 13.35-17.37 19.58l-18.41 18.05c-.38 14.06-.61 28.51 3.6 42.09 1.1 2.6 2.34 6.97 5.98 6.37 6.49-.51 13.08-1.18 19.54.06 7.65 1.16 14.61 6.72 16.9 14.2 3.11 9.64 3.94 19.84 4.3 29.9 1.11 15.32.02 30.67-.29 45.99-1.02 17.7-2.28 35.38-3.99 53.02-1.98 18.13-3.53 36.39-7.81 54.16-8.42 38.24-16.13 76.75-19.71 115.77-2.22 25.01-1.78 50.2-.1 75.23.86 6.61 1.13 13.45 3.71 19.7.83 2.95 4.38 3.09 6.93 3.22 3.74.04 8.16.81 11.31-1.7.86-2.69.57-5.6.73-8.38l3.34-49.12c2.15-24.29 3.69-48.77 8.87-72.67 3.56-16.9 14.55-30.83 21.18-46.45-.88-10.59-2.67-21.08-4.01-31.61-1.01-8.69-3-17.32-2.42-26.12l11.67-157.84c2.83-19.61 11.89-37.69 15.34-57.15.08-6.97.91-14.87-3.24-20.89-7.74-5.19-16.4-8.93-24.71-13.13-10.2-4.65-20.32-9.87-31.34-12.28m-1363.2 55.84c-1.88 1.72-3.92 3.7-4.38 6.33-.61 5.71.25 11.47 1.67 17 .93 3.69 2.87 7.19 2.75 11.09-.2 7.54-.95 15.05-1.93 22.52-.24 1.74-.78 3.51-.3 5.28 6.11-25.87 13.71-51.45 22.87-76.43-7.16 4.32-14.34 8.72-20.68 14.21m1350.09 38.32c-1.93 3.31-4.32 6.36-7.26 8.84l24.65 9.2c-1.16-4.05-1.56-8.43-3.75-12.09-2.99-4.44-8.56-5.94-13.64-5.95m-62.35 122.76c-5.9 9.8-10.34 20.39-14.51 31.02-8.5 22.15-14.66 45.14-19.49 68.36-4.67 22.71-8.32 45.69-9.58 68.86-1.3 15-.5 30.09-.66 45.13 1.14 21.73 2.54 43.45 5.12 65.07 4.86-8.09 9.35-16.38 13.69-24.75l-.73-1.18c-.84-8.71-1.69-17.45-3.14-26.08-.02-3.08 1.59-5.84 2.53-8.69 6.91-17.44 14.58-34.56 22.32-51.64 1.78-4.09 4.16-8.14 4.2-12.72.05-5.68.26-11.42-1.08-16.98 4.16-2.86 8.43-5.56 12.62-8.37 4.11-3.67 9.33.31 13.88.93-2.94.99-5.93 1.77-8.9 2.58l-10.58 7.54c.05 7.55 1.34 15.48-1.43 22.72-9.2 20.64-18.94 41.08-26.89 62.25 3.44.08 6.91.27 10.37.05.99-1.07 1.31-2.57 1.94-3.85 7.82-19.55 16.96-38.56 24.73-58.12.57-6.11 1.29-12.24 2.88-18.19 1.66 4.07 1.76 8.53 2.57 12.81 2.63-13.02 6.21-25.83 9.57-38.68.7-2.84.23-5.79-.29-8.61-2.16-11.99-5.38-23.97-10.93-34.86-5.8-2.74-11.86.84-17.6 1.95-.12-6.17.96-12.26 1.18-18.4-10.48 20.63-16.01 43.39-19.91 66.09-1.81 9.75-1.92 19.87-5.3 29.28-2.18-10.69.15-21.54 1.21-32.21 2.11-15.24 5.03-30.43 9.92-45.04 5.63-16.91 13.38-33.71 26.17-46.44l-6.53-30.23-7.35.4m6.18 50.61c.52 5.58.54 11.19 1.22 16.76 5.65-.19 13.17-.98 16.3 4.97 4.82 10.22 6.87 21.48 8.99 32.51 2.37-8.44 4.05-17.06 5.79-25.65-4.63-14.9-11.64-30.59-25.69-38.8-2.41 3.24-5.13 6.41-6.61 10.21m109.9 31.63c.64 4.68.72 9.42 1.31 14.12 1.28-2.96 2.39-5.98 3.28-9.08-1.06-2.08-2.76-3.68-4.59-5.04m14.06.73c1.8 5.82-.64 11.63-2.96 16.9-5.11 11.22-11.33 21.89-16.91 32.88-3.18 6.06-5.82 12.44-7.11 19.19-4.67 22.82-6.1 46.13-8.03 69.29l-4.71 69.19c-1.08 10.33-1.5 20.76-3.68 30.95-.69 3.12-1.86 6.6-4.92 8.14-5.3 2.36-11.3 1.8-16.89 1.11-20.26-1.85-40.01-7.57-60.26-9.23-5.57 3.66-9.8 9.13-12.98 14.93-2.32 3.84-1.75 8.47-3.2 12.59a17.85 17.85 0 0 1-8.33 9.99c-4.1 2.24-8.96 1.71-13.39 1.05-8.03 12.48-17.86 23.68-28.22 34.26-13.56 14.14-27.49 27.94-42.28 40.79-29.88 26.28-62.78 49.04-97.46 68.53-35.3 19.74-72.3 36.29-109.99 50.88-83.68 31.87-170.61 55.17-258.95 69.72-46.4 7.55-93.21 12.75-140.18 14.65-6.64.62-13.3.65-19.96.57 1.63 7.22.79 14.69 1.7 22.02.63 16.98.54 33.99.31 50.99 16.33.16 32.66-.36 48.97-.98 12.4.27 24.76-1.07 37.15-1.07l52.91-2.93c44.81-2.92 89.52-7.55 133.95-14.18 47.29-6.99 94.23-16.58 140.22-29.66 38.95-11.33 77.47-24.5 114.32-41.53 55.18-23.81 104.8-60.84 142.25-107.93 25.37-32 45.95-68.07 58.79-106.92-5.54 3.65-11.22 7.39-17.75 8.94-2.62-.85-4.22-3.13-4.36-5.83-1.54-12.56 1.25-25.11 1.62-37.65l-3.34-2.54c1.86.18 3.63.88 5.14 2.02 2.48 11.78 1.87 23.9 3.3 35.82 8.13-4.27 16.02-9.29 22.53-15.83 4.76-4.54 6.51-11.06 9.22-16.84-3.4-.01-7.48-1-10.04 1.89-5.6 5.51-9.05 12.72-12.96 19.43-.31-7.03 1.7-14.07 5.21-20.12 2.65-4.59 7.21-8.81 12.86-8.53 11.7.12 23.4-.17 35.09-.76 10.57-1.19 21.45-2.01 31.3-6.39 6.64-2.97 11.06-9.1 15-14.97 9.95-15.62 16.59-33.05 22.57-50.5 7.11-21.55 12.77-43.59 16.79-65.93 4.41-24.74 5.52-49.9 5.92-74.99.01-22.34-1.06-44.68-3.12-66.92-.82-2.17-3.49-3.01-5.14-4.49M76.74 984.62c-14.4 25.03-27.18 51.66-31.73 80.43-4.01 23.83-2.1 48.42 4.17 71.7 6.31 23.52 16.42 45.83 27.97 67.21 8.61 16.37 18.97 31.84 31.1 45.81 22.87 26.4 50.48 48.34 79.88 67.05 37.22 23.74 77.2 42.89 118.29 58.9 39.33 15.28 79.62 28.14 120.63 38.11 7.57.56 15.18-.07 22.72-.9 3.38-3.7 6.36-7.74 9.51-11.62-18.51-2.47-36.79-6.42-55-10.51-23.44-5.52-46.72-11.77-69.59-19.34-40.9-13.6-80.94-30.21-118.39-51.64-34.82-20.18-67.54-44.62-94.31-74.82-25.98-29.48-47.56-63.69-58.22-101.77-6.76-25.34-8.86-52.16-4.52-78.09 4.62-30.76 17.27-59.85 33.97-85.92 1.53-2.62 4.21-4.91 4.23-8.14l.38-20.54c-7.24 11.23-14.46 22.48-21.09 34.08m-9.79 115.36c-.22 8.22 1.91 16.22 2.62 24.37 1.25-14.46 2.97-28.96 6.92-42.97 4.04-15.22 10.21-30.22 20.38-42.41 1.68-1.54 1.32-3.93 1.5-5.95.16-6.33 1.33-12.74-.29-18.96-.41-11.06-.5-22.13-.68-33.19-20.04 36.18-33.34 77.38-30.45 119.11m1339.06-29.9c-1.95 4.44-2.45 9.46-5.16 13.54-17.46 39.81-41.98 76.69-72.93 107.29-12.9 12.88-27.12 24.32-41.39 35.63-64.69 50.72-137.82 90.18-214.59 119.29-83.22 31.58-170.64 51.36-258.9 62.14-67.65 8.18-135.9 11.34-204.04 9.63-12.87-.67-25.77-.48-38.62-1.52 3.68 5.14 8.38 9.54 13.6 13.11 1.11.88 2.55 1.09 3.95 1.09 43.35-.02 86.75.41 129.99-2.84 96.27-5.98 191.53-24.53 284.09-51.44 37.29-10.99 74.29-23.1 110.41-37.52 39.42-15.63 78.04-33.62 113.99-56.21 46.49-28.77 87.54-65.23 127.23-102.58 8.74-8.4 16.04-18.16 22.72-28.24 22.08-34.15 38.67-71.47 53.94-109.05 1.04-2.31.73-4.89.82-7.33l-.03-25.43c-7.34 20.56-15.98 40.62-25.08 60.44M74.84 1134.04c-.19 3.1-1.46 6.33-.32 9.38 2.89 8.89 5.93 17.72 10 26.15 9.45 20.48 21.24 39.99 35.69 57.34-7.15-20.72-11.78-42.21-15.09-63.85-3.42-22.87-5.6-45.94-6.36-69.05-1.16-15.5-.64-31.05-.78-46.57-13.52 26.92-20.03 56.79-23.14 86.6m1327.27-15.95c-9.72 19.58-20.53 38.76-34.19 55.9-8.65 10.3-18.68 19.34-28.44 28.57-15.28 14.39-30.75 28.59-46.95 41.94-31.34 25.94-65.3 48.73-101.32 67.66-35.26 18.67-72.25 33.86-109.8 47.26-37.61 13.21-75.82 24.65-114.36 34.8-90.15 23.54-182.88 37.69-276.03 40.2-14.41.63-28.85.31-43.25 1.13 4.42.16 8.85.14 13.28.27 2.63 2.84 3.89 6.54 4.41 10.33 1.27 9.26 1.58 18.63 1.45 27.99a127.06 127.06 0 0 0-2.66 2.56c116.84-1.7 233.01-22.12 344.78-55.86 38.57-11.93 76.75-25.2 114.02-40.76 40.06-16.64 79.23-35.77 115.74-59.31 31.01-19.86 59.97-42.89 86.39-68.54 11.86-11.77 23.8-23.49 34.64-36.22 6.74-7.86 12.4-16.55 17.96-25.26 21.22-34.72 37.92-71.97 53.29-109.57 1.29-2.54.92-5.43.88-8.16-.37-7.72-.63-15.44-.63-23.15-8.62 23.19-18.36 45.98-29.21 68.22m-13.36-44.3c.37 6.18.19 12.38.4 18.58 2.99-6.05 5.65-12.25 8.11-18.54l-8.51-.04m37.07 40.17c4.71 3.58 9.31 7.58 12.48 12.65 2.16 3.19 2.44 7.36 1.12 10.94-2.59 6.91-6.81 13.06-11.13 18.99 9.28 1.08 18.45 2.91 27.68 4.35 10.68 1.63 21.4 3.71 32.26 3.11 2.34-11.73 2.99-23.72 3.84-35.62-8.6 3.8-18.06 1.61-27.07 1.46-8.88-1.28-18.85-2.76-25.21-9.73-4.85-7.03-5.34-16.01-6.25-24.24l-7.72 18.09m-18.02 38.72c-3.37 6.54-6.33 13.34-10.57 19.37-4.14 9.75-10.12 18.6-15.61 27.64 3.83-.32 7.97-1.4 10.17-4.85 3.64-4.84 1.11-11.24 3.62-16.5 3.38-8.19 8.6-15.91 15.88-21.12 3.51-2.56 8.11-1.68 12.14-1.32 3.66-7.54 8.47-14.7 10.5-22.91-1.69-5.77-6.36-10-10.08-14.51-5.15 11.49-10.44 22.93-16.05 34.2m-1351.88 28.5c8.12 39.84 29.62 75.58 54.95 106.84 13.51 16.38 28.15 31.91 44.65 45.31 31.24 25.93 66.67 46.31 103.08 64.03 39.06 18.84 79.73 34.3 121.15 47.11-1.55-10.44-.93-21.04-2.05-31.5-.23-2.47.72-4.78 1.31-7.1-31.82-9.05-63.37-19.21-94.04-31.65-41.04-16.62-81.1-36.25-117.59-61.46-31.14-21.59-60.1-47.1-81.89-78.3-11.65-16.7-20.94-34.89-29.57-53.28m96.71 165.13c-.74 11.87-.45 23.76-1.35 35.62-.13 4.33-.93 8.86.6 13.05 3 9.65 9.07 18.01 15.77 25.44 11.56 13.22 25.52 24.1 39.78 34.25 36.62 25.39 77.09 44.79 118.86 60.08 39.09 14.16 79.14 25.7 119.72 34.76-2.98-14.36-2.83-29.21-2.06-43.79-5.79-6.05-3.56-15.22-4-22.78-.81-5.54-1.89-11.05-2.53-16.62-2.67-.02-5.33-.06-7.98-.2-2.58 12.25-13.81 22.49-26.48 22.88-9.44-1.15-15.57-10.06-18.49-18.39-1.8-4.52 1.39-8.7 3.2-12.61-3.93-.81-6.72-3.91-7.02-7.92-43.31-10.05-85.51-24.66-126.09-42.78-36.12-16.41-70.86-36.22-101.93-60.99m1099.52 107.86c-16.53 9.75-34.17 17.35-51.57 25.37-19.56 8.14-39.22 16.06-59.33 22.74-41.99 14.23-85.12 24.92-128.65 33.17-71.75 13.75-144.67 20.25-217.58 23.06-10.35.8-20.73.25-31.08.75-26.77.75-53.56.84-80.33.18-4.07 5.74-8.72 11.05-13.55 16.15 6.63.54 13.3.23 19.93.84 10.96.8 21.97.37 32.94 1.12 26.35.9 52.72.3 79.07.45 14.7.13 29.36-1.01 44.05-1.05 6.66-.26 13.31-1.03 19.98-.95 71.51-3.75 142.96-11.71 213.05-26.81 44.15-9.49 87.85-21.61 129.87-38.25 36.02-14.49 71.51-31.61 102.05-55.86 15.86-13.21 30.48-28.42 40.61-46.54 8.44-15.34 14.08-33.48 10.22-51-29.52 39.19-66.97 72.42-109.68 96.63m-781.04-53.98c-2.34 1.07-4.09 3.05-5.99 4.74 8.93-1.14 17.94-2.22 26.96-1.88 3.12-.12 6.37 2.56 5.59 5.89-1.37 7.33-4.23 14.35-7.87 20.83-1.36 2.53-3.59 5.08-6.74 4.93l-34.76-.71c-7.12 8.04-5.12 19.42-5.78 29.25 1.3-4.38 2.26-9.9 6.84-12.06 4.15-.69 8.38-.61 12.56-.36 12.79.25 25.5 1.82 38.17 3.5 9.69 1.69 19.7 2.72 28.87 6.47 5.5 3.6 5.71 11.05 6.05 16.96-1.81-4.11-2.22-8.94-5.31-12.4-2.14-2.44-5.6-2.33-8.52-2.94-13.68-1.91-27.47-2.85-41.2-4.29-9.62-.46-19.25-1.85-28.88-1.12-3.55 5.24-4.1 11.86-5.27 17.95 17.12.71 34.17 2.5 51.13 4.97 7.72 1.32 15.72 1.97 23.06 4.88 5.52 3.89 9.08 10 12.14 15.92 2.1 4.52 4.38 10.65.48 14.89-3.43 2.24-7.8 1.12-11.65 1.4-11.71-.46-23.42-1.23-35.08-2.38-11.33-1.38-22.79-2.5-33.8-5.69 2.1 6.7 3.54 13.62 6.05 20.2 7.86 2.02 15.9 3.26 23.89 4.71 18.6 2.9 37.16 6.67 56 7.55-.98-7.35-1.04-14.76-1.71-22.13 3 6.69 4.95 13.79 7.67 20.6 2.04.9 4.1 1.8 6.26 2.42 5.14-4.32 9.7-9.3 13.82-14.59l-4.3-25.95c-1.84 3.57-3.87 7.62-7.87 9.16-3.36.25-7.14 0-10.04-1.83-3.31-3.65-3.56-8.92-4.2-13.55-1.68-10.09.75-20.6-2.61-30.45-1.7-5.52-5.77-11.11-11.92-11.77-23-2.66-46.1-4.47-69.21-5.77-1.62-.05-3.33-.35-4.87.27-1.76 1.58-2.96 3.65-4.46 5.48-1.66-4.18.16-10.58 5.35-10.75 20.42.06 40.81 1.57 61.18 2.79 7.32 1.22 15.75-.29 21.92 4.73 7.15 5.27 9.99 14.37 10.88 22.86.13 9.93.15 20.04 2.51 29.75 1.06.54 2.21.96 3.33 1.44 6.06-8.64 9.81-18.62 14.66-27.93l54.5 4.77c7.01.36 14.05 1.78 21.09.79 7.31-1.36 14.22-4.94 19.45-10.25.54-9.5-.02-19.23-2.05-28.56l-40.35-.86c-9.66-.29-19.35.25-28.99-.3-12.41-7.38-24.73-17.78-28.28-32.42-4.27-3.53-9.95-4.54-15.2-5.77-12.75-2.43-25.73-3.51-38.7-3.79-11.59-.61-23.23-.67-34.8.4m-87.19 6.84c.11 2.2-.23 4.68 1.31 6.53 5.05 7.13 13.69 10.12 21.33 13.6 2.62-4.21 5.51-8.25 8.18-12.43-10.33-2.32-20.61-4.89-30.82-7.7m74.72 6.08c1.19-.03 2.4.02 3.6 0 1.65-1.44 3.45-2.69 5.3-3.84-1.98-.01-3.95-.08-5.91-.14l-2.99 3.98m21-3.11c2.68 1.42 5.4 2.79 7.78 4.71-4.51.04-8.93-.94-13.39-1.41-3.88.64-7.22 2.85-10.57 4.75-2.42-.55-4.85-1.21-7.34-1.16-1.98.95-3.75 2.45-5.96 2.85-10.31 1.19-20.68 1.41-31.04 1.26l-15.44 24.55c-4.41 7.29-9.13 14.43-12.69 22.19 1.92 4.97 4.44 10.09 8.93 13.22 2.25 1.72 5.32 1.25 7.92.78 7.71-2.26 14.33-8.74 16.16-16.64 1.63-6.89-1.87-13.59-1.35-20.48 4.24 5.21 7.41 11.49 7.31 18.37h7.13c-1.61-10.86-2.37-23.16 4.32-32.56 3.72-5.77 11.45-3.95 17.25-4.43 3.16-4.23 7.64-8.38 13.28-8.16 4.77-.33 8.79 2.76 11.61 6.3 2.14-4.54 4.3-9.09 5.81-13.88-3.24-.28-6.48-.32-9.72-.26m-18.39 15.79c4.88.42 9.8.09 14.7.29 2.71-.08 5.72.61 8.02-1.3-3.62-.91-7.34-1.29-11.03-1.62-4 .32-7.82 1.67-11.69 2.63m-75.76-.98c1.08 8.41 1.93 16.87 3.66 25.19l2.24 1.55c3.95-6.94 8.14-13.74 12.61-20.35-6.47-1.1-12.9-2.92-18.51-6.39m958.96 7.24c-21.1 26.67-49.7 46.17-79.43 62.06-55.89 29.65-116.75 48.76-178.28 62.65-86.25 19.15-174.51 27.66-262.69 30.25-25.7.38-51.4 1.12-77.09.35-13.62-.5-27.25-.08-40.86-.98-7.69-.62-15.42-.09-23.1-.83-7.69-.75-15.43-.38-23.1-1.23-30.97-1.34-61.83-4.3-92.74-6.55-3.42 2.21-5.65 5.95-8.44 8.92-4.73 4.96-8.86 10.48-13.95 15.1-4.34 3.79-10.09 5.06-15.54 6.35 91.76 15.11 184.89 20.69 277.83 18.86 12.34.32 24.63-1.04 36.97-1.01 79.89-3.77 159.83-12.24 237.94-30.09 36.63-8.65 73.28-18.86 106.97-35.98 20.31-9.52 40.31-19.78 59.6-31.24 16.54-9.46 32.45-20.04 47.48-31.74 14.49-11.75 28.56-24.51 38.73-40.3 4.8-7.45 8.6-15.73 9.7-24.59M176.7 1443.59c7.25 13.37 17.09 25.2 28.27 35.46 28.17 25.64 61.66 44.57 95.78 61.08 36.94 17.53 75.3 32.04 114.5 43.66 24.37 7.19 49.32 12.18 74.17 17.38-7.19-5.19-13.7-11.37-18.75-18.69-4.36-6.14-7.49-13.56-6.67-21.22-40.51-7.4-80.51-17.7-119.66-30.49-39.93-13.14-79.03-29.33-115.34-50.64-18.35-10.77-36.2-22.58-52.3-36.54m1119.08 63.18c-31.91 25.22-67.48 45.38-104.02 63.07-28.37 14.55-58.95 24.16-89.75 32.07-84.72 21.31-171.94 30.86-259.01 35.08-8.99-.09-17.95.75-26.93.98l-61.01.31c-15.29-.41-30.6-.03-45.87-1.15-11.37-.06-22.71-1.07-34.07-1.51-82.47-5.06-164.76-16.17-245.12-35.81-39.96-10.43-78.94-24.47-116.76-41.02-35.72-15.98-70.73-34.33-101.65-58.51-16.21-12.93-31.58-27.54-42.2-45.53l.74 14.41c1.49 7.85 5.64 14.88 10.11 21.4 11.46 16.37 26.6 29.69 42.07 42.16 16.15 13.13 33.7 24.59 52.66 33.26 19.65 9.33 39.9 17.38 60.42 24.57 36.88 13.17 74.52 24.11 112.53 33.51 45.24 11.13 91.03 20.12 137.2 26.36 44.34 6.46 89.11 8.79 133.86 10.02 31.33.98 62.69 1.32 94.04.56 11.35.34 22.66-1.02 34-1.02 21.67-1.29 43.33-2.67 64.92-4.97 46.71-4.72 93.09-12.31 139.21-21.09 24.74-4.76 49.48-9.6 73.91-15.79 29.19-7.72 57.74-18.04 84.92-31.24 33.83-16.66 65.54-37.96 92.73-64.17 12.93-12.5 24.91-26.1 34.75-41.19 6.75-9.97 6.45-22.52 7.61-34.02-10.37 24-29.29 43-49.29 59.26m-848.97-26.88c-2.85 6.73-3.28 14.81-.28 21.54 2.59 1.71 5.66 2.47 8.63 3.3 11.4 2.81 23.12 3.84 34.76 5.13 13.08.9 26.2 1.98 39.32 1.39-.36-7.32-4.95-13.61-9.47-19.03-2.96-4-8.38-3.64-12.72-4.81-19.97-3.29-40.11-5.51-60.24-7.52m218.3 3.37c5.15 4.94 3.76 12.37 3.9 18.77.46 20.21.78 40.45.05 60.66 1.87-2.33 4.13-4.42 5.38-7.17.59-3.13.55-6.33.57-9.49-.05-20.96 1.11-41.92.96-62.88-3.62.08-7.25.24-10.86.11m-96.63.4c-1.8 4.49-4.32 8.69-5.88 13.27 1.85 10.42 4.78 20.64 6.42 31.1-1.47 4.91-5.42 8.64-8.65 12.48-2.87 3-5.42 6.84-9.54 8.18-4.18-.21-7.82-2.51-11.75-3.63-7.35-.23-14.76.35-22.03-1.04 8.75 4.84 16.8 11.44 22.1 20.02 4.07 6.33 4.05 14.94.14 21.35-2.49 4.39-6.74 7.5-11.31 9.47-7.77 3.35-16.5 3.91-24.81 2.91-12.55-2.88-22.07-13.23-27.43-24.5-2.81-6.34-5.3-13.94-1.96-20.55 3.51-7.08 11.67-9.74 18.82-11.49-5.19-.27-10.32-1.14-15.41-2.1-2.63 4.29-5.03 8.76-6.45 13.62-1.84 5.98-2.95 12.79-.05 18.63 4.06 8.68 10.83 15.83 18.29 21.72 5.47 4.22 11.84 8.06 19 7.97 8.93.93 18.25 1.39 26.9-1.49 6.27-2.11 9.73-8.12 14.34-12.43 7.04-7.92 14.42-15.53 21.7-23.24 4.15-4.5 8.79-8.93 14.77-10.8-2.7 6.04-7.11 11.06-11.67 15.78l85.49 6.16a122.94 122.94 0 0 1 2.44-3.41c-1.16-26.21-.65-52.46.06-78.67.39-4.26-3.59-6.86-6.22-9.52-7.24 3.94-15.43 6.31-23.73 5.59l-63.58-5.38m-118.39 63.39c.29 1.08-.26 2.93 1 3.58 4.83 1.15 9.73 2 14.59 3.04 1.74-5.4 4.51-10.34 7.57-15.07-4.98-.99-10.02-1.68-14.97-2.79-2.21-.48-4.59-1.34-5.54-3.58-3.19-6.53-3.7-13.91-4.38-21.02-.16 11.95 1.58 23.87 1.73 35.84m45.06-.87c-4.81.79-9.71 2.12-13.68 5.06-2.94 2.18-4.47 6-3.99 9.62.95 7.74 5.03 14.74 9.94 20.66 5.38 6.22 13.02 11.2 21.51 11.1 7.05-.25 14.48-1.19 20.42-5.31 4.72-3.02 7.55-8.73 7.08-14.3-.75-5.35-4.31-9.72-7.82-13.6-5.43-5.47-11.81-10.2-19.13-12.8-4.62-1.66-9.58-.91-14.33-.43zm678.64-1005.46c14 10.68 26.27 23.38 38.4 36.09 43.13 46.83 76.66 102.3 99.05 161.85 15.09 41.63 23.46 85.47 27.27 129.5 4.06 48.92 2.36 98.43-6.36 146.78-7.56 41.88-20.84 82.87-40.81 120.52-17.81 33.26-41.6 63.05-68.26 89.63-28.95 28.5-61.91 52.89-97.37 72.7-14.58 7.9-29.34 15.7-45.02 21.2 34.44-16.33 66.77-37.04 96.34-61.08 31.83-26.05 60.54-56.13 83.73-90.18 22.51-32.36 38.67-68.84 49.44-106.69 14.48-49.99 20.61-102.11 20.8-154.05-.47-45.75-5.48-91.6-17.12-135.92-10.85-41.48-28.22-81.1-49.77-118.1-24.47-41.48-54.26-80.17-90.32-112.25zm345.44 151.77c5.93-10.36 14.28-19.67 24.54-25.88-5.57 10.63-14.58 19.33-24.54 25.88zm-60.37-16.75c8.47.75 16.55 3.81 24.32 7.12 6.19 2.85 12.54 5.92 17.25 11-13.85-6.04-28.56-10.31-41.57-18.12zm40.87 37.63c10.27 4.28 16.67 14.87 18.47 25.53 1.96 8.97-.02 18.09-.93 27.05-3.63 39.65-5.68 79.42-8.86 119.1-.45 9.78-2.98 19.27-4.99 28.81-5.85 26.9-11.5 53.85-16.02 81.01-4.06 24.48-5.95 49.27-5.99 74.08.33 13.88.6 27.83 3.36 41.49-6.15-21.55-5.93-44.23-5.87-66.44-.17-23.8 2.92-47.46 6.63-70.92 3.85-23.84 8.51-47.54 13.19-71.22 2.97-13.44 2.72-27.27 3.81-40.91 2.09-35.7 3.94-71.42 7.62-106.99 1.65-14.23-2.59-28.73-10.42-40.59zM1430 788.05l41.5 16.19-.89 3.06-41.9-16.24 1.29-3.01zm-39.76 132.33c2.18-6.16 4.29-12.39 7.4-18.16-13.1 47.78-17.18 97.41-19.37 146.7-.42 13.43-.46 26.89.06 40.31-3.06-14.52-3.41-29.43-3.97-44.21-.29-21.09.9-42.17 3.02-63.13 2.35-20.84 6.24-41.59 12.86-61.51zm138.6 54.6c4.44-8.4 8.97-16.84 14.71-24.44-5.12 14.58-12 28.48-17.04 43.1-1.43 3.93-1.68 8.13-2.29 12.25l-8.13 76.05c-1.14 14.7-3.05 29.35-3.25 44.1-.91 11.98-.75 24.04-2.78 35.91-.74 5.76-2.59 11.38-5.75 16.27 5.27-10.91 4.83-23.31 5.31-35.11-.4-47.19 4.41-94.18 9.58-141.02.94-9.69 5.41-18.5 9.64-27.11z"/><path d="M147.68 1200.45c-14.38-24.56-25.75-51.34-30.25-79.57 9.36 40.03 29.93 76.94 56.86 107.8 24.49 28.06 54.54 51.02 87.32 68.58 20.96 11.4 42.11 22.54 64.08 31.92 83.51 36.1 173.88 54.29 264.33 60.83 23.14 1.85 46.37 2.25 69.55 3.52-17.51.31-35.02-.42-52.53-.52-47.29-1.56-94.53-5.9-141.15-14.26-63.57-11.45-126.06-30.24-184.23-58.51-18.51-8.69-36-19.44-52.53-31.44-32.59-23.7-60.85-53.64-81.45-88.35zm1178.34 125.49c23.53-32.68 43-68.02 62.97-102.92-5.68 19.46-14.69 37.77-24.25 55.58-20.3 36.06-44.83 69.79-73.05 100.06-26.44 27.89-56.73 52.51-91 70.14-39.7 20.8-85.31 31.04-130.06 26.61 21.34.3 42.83-1.03 63.61-6.16 39.7-9.1 76.57-28.55 108.26-53.92 32.14-25.39 59.57-56.27 83.52-89.39zm-59.37 3.62l32.51-35.06c-10.8 17.57-23.71 33.78-36.98 49.54-23.32 27.42-49.46 52.54-78.62 73.7-18.75 13.43-39.36 24.55-61.64 30.82-17.79 4.96-36.11 8.02-54.48 9.63 19.83-5.56 40.1-9.83 59.21-17.69 20.94-8.16 39.94-20.53 57.65-34.23 29.72-23.02 56.28-49.72 82.35-76.71zM540.9 1441.13c2.51-10.25 7.35-20.24 14.82-27.79-2.5 10.28-8.08 19.72-14.82 27.79zm-133.93 8.84c-1.03-5.34 5.03-8.5 9.39-9.54-.7 2.92-1.95 5.67-3.33 8.34 1.98 6.17 3.35 12.63 3.03 19.15-4.12-5.34-7.05-11.55-9.09-17.95zm158.55-7.3c10.17 4.59 21.42 5.65 32.39 6.82 11.97 1.19 24.01 1.95 36.06 1.59 7.31-.22 13.95-3.63 20.57-6.36-4.16 6.35-10.98 10.94-18.49 12.18-14.28.78-28.57-.87-42.6-3.48-9.7-2.17-20.17-4.08-27.93-10.75zm66.18 19.47c2.83 3.91 2.5 8.87 2.1 13.44-4.27-3.03-4.99-9.22-2.1-13.44zm-109.35 21.68c-2.25-5.2-.93-11.74 3.33-15.52 1.15 5.4-.63 10.87-3.33 15.52zm51.47 5.06c15.98 6.77 26.81 26.14 21 43.09-.73-7.81-2.26-15.66-6.1-22.58-3.91-7.56-9.64-13.91-14.9-20.51zm-32.81 59.53c10.53 4.39 17.53 18.87 10.38 28.9-.13-10.6-5.89-19.7-10.38-28.9z"/></svg>