<svg xmlns="http://www.w3.org/2000/svg" viewBox="0 0 22.95 8.75"><defs><style>.cls-1{fill:none;stroke:#000;stroke-miterlimit:10;stroke-width:0.75px;}</style></defs><g id="Layer_2" data-name="Layer 2"><g id="Layer_1-2" data-name="Layer 1"><path class="cls-1" d="M6.46,3A3,3,0,0,1,6,4.8a2.52,2.52,0,0,1-2.19.92H2.46V8.37H.38v-8H3.69a2.71,2.71,0,0,1,2.14.82A2.63,2.63,0,0,1,6.46,3ZM4.31,3A1,1,0,0,0,4,2.32a1.2,1.2,0,0,0-.89-.27H2.46V4h.69a1.18,1.18,0,0,0,.93-.29A1.09,1.09,0,0,0,4.31,3Z"/><path class="cls-1" d="M13.93,8.37H11.24L8.54,4.9V8.37H6.46v-8H8.54V3.67L11.08.38h2.56L10.47,4.16Z"/><path class="cls-1" d="M22.23,8.37H19.72L18,5.77l-1.79,2.6H13.7l3.13-4.26L14.27.38h2.56L18,2.45,19.26.38h2.56L19.21,4.11Z"/></g></g></svg>